<?xml version="1.0" standalone="no"?>
<!DOCTYPE svg PUBLIC "-//W3C//DTD SVG 20010904//EN"
 "http://www.w3.org/TR/2001/REC-SVG-20010904/DTD/svg10.dtd">
<svg version="1.0" xmlns="http://www.w3.org/2000/svg"
 width="1272.000000pt" height="1280.000000pt" viewBox="0 0 1272.000000 1280.000000"
 preserveAspectRatio="xMidYMid meet">
<metadata>
Created by potrace 1.15, written by Peter Selinger 2001-2017
</metadata>
<g transform="translate(0.000000,1280.000000) scale(0.100000,-0.100000)"
fill="#000000" stroke="none">
<path d="M2075 12791 c-340 -40 -672 -164 -975 -366 -374 -249 -693 -610 -876
-990 -143 -297 -209 -572 -220 -920 -15 -438 62 -797 250 -1170 120 -238 244
-411 426 -598 138 -143 240 -229 393 -331 292 -195 589 -310 957 -373 150 -25
580 -25 730 0 431 73 806 239 1135 501 107 86 295 277 385 391 610 780 679
1853 173 2690 -129 212 -344 459 -536 614 -120 97 -284 203 -425 274 -274 140
-511 215 -832 263 -112 17 -485 26 -585 15z"/>
<path d="M9855 12790 c-634 -58 -1178 -342 -1602 -835 -372 -431 -563 -951
-563 -1530 0 -660 237 -1232 705 -1701 395 -396 791 -597 1355 -686 131 -20
557 -17 690 5 542 92 1008 334 1364 708 338 355 547 769 638 1259 26 146 36
502 18 660 -95 824 -585 1523 -1322 1885 -227 111 -456 182 -718 221 -117 17
-443 26 -565 14z"/>
<path d="M8814 8018 c-106 -71 -267 -229 -344 -335 -114 -160 -193 -346 -225
-527 -13 -79 -15 -477 -15 -3622 l0 -3534 138 0 c76 0 261 3 410 7 l272 6 0
1418 c0 1534 1 1559 49 1583 83 42 243 56 639 56 l344 0 93 88 c52 49 118 105
147 125 75 52 196 102 308 129 52 12 96 23 98 24 2 1 -20 31 -48 66 -55 68
-93 140 -110 209 -15 60 -25 2582 -12 3019 9 283 13 334 31 398 71 244 249
438 481 522 42 16 136 38 209 49 74 11 136 22 138 25 8 8 -218 230 -264 261
-49 32 -41 33 -220 -29 -273 -95 -495 -136 -778 -143 -151 -4 -233 -1 -334 11
-262 32 -515 97 -671 173 -185 89 -230 92 -336 21z"/>
<path d="M3250 7959 c-83 -30 -342 -95 -481 -121 -111 -21 -153 -23 -412 -22
-158 0 -284 -3 -280 -7 5 -4 159 -73 343 -154 184 -82 648 -287 1030 -456 382
-170 698 -305 702 -301 12 12 -36 169 -88 292 -129 308 -370 587 -652 756 -64
39 -85 40 -162 13z"/>
<path d="M1338 7770 c-209 -38 -407 -173 -509 -346 -53 -90 -148 -302 -186
-413 -24 -71 -25 -85 -20 -206 4 -71 13 -155 20 -185 49 -190 154 -334 327
-446 77 -49 97 -59 415 -199 116 -51 318 -141 450 -200 132 -59 321 -142 420
-185 99 -43 284 -124 410 -180 127 -56 410 -181 630 -277 220 -96 477 -209
570 -250 94 -42 361 -160 595 -263 234 -103 515 -228 625 -277 110 -50 223
-96 250 -104 65 -17 292 -18 365 0 80 19 206 81 279 136 124 94 216 236 315
485 66 167 79 233 72 360 -16 308 -155 518 -430 649 -55 27 -276 126 -491 221
-214 95 -887 393 -1495 662 -608 270 -1298 576 -1535 681 -236 104 -473 210
-525 234 -171 80 -259 105 -390 109 -63 1 -136 -1 -162 -6z"/>
<path d="M7978 7539 c-128 -99 -390 -299 -583 -444 -512 -387 -1253 -951
-1302 -991 -24 -19 -43 -39 -43 -43 0 -5 36 -32 81 -61 160 -104 267 -225 349
-395 69 -142 93 -249 93 -405 -1 -130 -10 -187 -59 -343 -32 -101 -136 -320
-196 -414 -157 -242 -395 -385 -707 -423 -52 -7 -112 -9 -133 -6 -49 8 -43 -6
14 -35 71 -36 130 -49 230 -49 122 0 194 21 284 85 38 26 329 246 649 489 319
243 747 569 951 724 282 214 375 290 388 316 14 30 16 99 16 628 0 326 5 667
10 758 17 262 69 475 165 676 46 96 52 114 36 114 -5 0 -115 -81 -243 -181z"/>
<path d="M11254 7491 c-122 -20 -228 -75 -324 -170 -75 -74 -122 -155 -145
-253 -23 -96 -22 -3242 0 -3337 22 -92 71 -185 129 -246 l51 -52 101 -7 c205
-12 301 -39 499 -140 73 -37 119 -69 173 -120 l74 -71 27 32 c40 48 155 275
191 378 17 50 40 134 51 188 18 94 19 161 19 1695 0 1388 -2 1605 -15 1661
-46 194 -209 365 -405 426 -62 19 -339 29 -426 16z"/>
<path d="M590 3105 l0 -3105 1805 0 1805 0 0 2239 c0 1232 -3 2247 -6 2256 -9
22 -27 30 -460 218 -572 249 -697 304 -964 427 -222 102 -1254 557 -1625 717
-278 119 -366 173 -473 287 -34 36 -66 66 -72 66 -7 0 -10 -973 -10 -3105z"/>
<path d="M10815 3274 c-64 -10 -193 -49 -265 -79 -138 -57 -256 -149 -335
-258 -66 -92 -37 -87 -498 -87 -384 0 -406 -1 -428 -19 l-24 -19 -3 -1401 -2
-1401 1617 0 c890 0 1669 -3 1731 -7 l112 -6 0 1429 0 1429 -432 -4 c-294 -2
-443 0 -468 8 -28 8 -51 29 -96 86 -121 155 -269 248 -486 305 -64 17 -118 23
-238 25 -85 2 -168 1 -185 -1z m454 -204 c101 -36 292 -174 276 -200 -8 -13
-1145 -14 -1145 -1 0 18 116 111 180 145 139 72 211 86 445 82 157 -3 188 -6
244 -26z"/>
</g>
</svg>
